<svg width="17" height="19" viewBox="0 0 17 19" fill="none" xmlns="http://www.w3.org/2000/svg">
<path d="M16 13.7456C16 14.5267 15.3704 15.1607 14.5949 15.1607H2.40512C1.62957 15.1607 1 14.5267 1 13.7456C1 12.9645 1.62957 12.3305 2.40512 12.3305H2.87043V7.60723C2.87043 4.4829 5.38869 1.9375 8.5 1.9375C10.0511 1.9375 11.4562 2.57155 12.4781 3.60074C13.5 4.62074 14.1296 6.03588 14.1296 7.60723V12.3305H14.5949C15.3704 12.3305 16 12.9645 16 13.7456Z" stroke="#00A0D6" stroke-width="1.5" stroke-linecap="round" stroke-linejoin="round"/>
<path d="M8.5 1.94649V1" stroke="#00A0D6" stroke-width="1.5" stroke-linecap="round" stroke-linejoin="round"/>
<path d="M11.3099 15.1699C11.3099 16.7413 10.0508 18.0002 8.49966 18.0002C6.94856 18.0002 5.68945 16.7321 5.68945 15.1699H11.3099Z" stroke="#00A0D6" stroke-width="1.5" stroke-linecap="round" stroke-linejoin="round"/>
</svg>
