<svg width="50" height="50" viewBox="0 0 50 50" fill="none" xmlns="http://www.w3.org/2000/svg">
<rect x="1" y="1" width="48" height="48" rx="7.69565" stroke="url(#paint0_linear_1_24)" stroke-width="2"/>
<path d="M34.6912 23.894L25.4557 37.1901C25.1005 37.7165 24.5267 38 23.912 38C23.7207 38 23.5294 37.973 23.3381 37.919C22.5594 37.676 22.0266 36.9876 22.0266 36.1912V28.578C22.0266 28.2676 21.726 27.9976 21.3572 27.9976L15.8514 27.9301C15.1547 27.9301 14.5126 27.5386 14.1984 26.9447C13.8978 26.3643 13.9388 25.6624 14.3213 25.1089L23.5431 11.8129C24.0076 11.138 24.8683 10.841 25.6607 11.0839C26.4394 11.3269 26.9722 12.0153 26.9722 12.8118V20.4249C26.9722 20.7354 27.2728 21.0054 27.6416 21.0054L33.1474 21.0728C33.8441 21.0728 34.4862 21.4508 34.8004 22.0583C35.101 22.6387 35.06 23.3406 34.6912 23.894Z" fill="#949494"/>
<defs>
<linearGradient id="paint0_linear_1_24" x1="-2.5" y1="-1.5" x2="55" y2="51" gradientUnits="userSpaceOnUse">
<stop stop-color="#313B51"/>
<stop offset="0.518365" stop-color="#949494"/>
<stop offset="1" stop-color="#313B51"/>
</linearGradient>
</defs>
</svg>
