<svg width="59" height="59" viewBox="0 0 59 59" fill="none" xmlns="http://www.w3.org/2000/svg">
<g filter="url(#filter0_b_1_3)">
<path d="M1 19.2C1 15.8232 1.00078 13.3507 1.16017 11.3999C1.31861 9.46067 1.62877 8.12511 2.19893 7.0061C3.25354 4.93632 4.93632 3.25354 7.0061 2.19893C8.12511 1.62877 9.46067 1.31861 11.3999 1.16017C13.3507 1.00078 15.8232 1 19.2 1H31.8974H39.8C43.1768 1 45.6493 1.00078 47.6001 1.16017C49.5393 1.31861 50.8749 1.62877 51.9939 2.19893C54.0637 3.25354 55.7465 4.93632 56.8011 7.0061C57.3712 8.12511 57.6814 9.46067 57.8398 11.3999C57.9992 13.3507 58 15.8232 58 19.2V28.4037V39.8C58 43.1768 57.9992 45.6493 57.8398 47.6001C57.6814 49.5393 57.3712 50.8749 56.8011 51.9939C55.7465 54.0637 54.0637 55.7465 51.9939 56.8011C50.8749 57.3712 49.5393 57.6814 47.6001 57.8398C45.6493 57.9992 43.1768 58 39.8 58H31.8974H19.2C15.8232 58 13.3507 57.9992 11.3999 57.8398C9.46067 57.6814 8.12511 57.3712 7.0061 56.8011C4.93632 55.7465 3.25354 54.0637 2.19893 51.9939C1.62877 50.8749 1.31861 49.5393 1.16017 47.6001C1.00078 45.6493 1 43.1768 1 39.8V29.5V19.2Z" stroke="#949494" stroke-width="2"/>
</g>
<path d="M24.7908 40.7878L37.5472 30.2736C38.0325 29.8736 38.0325 29.1303 37.5472 28.7303L24.7908 18.2161C24.1385 17.6785 23.1548 18.1425 23.1548 18.9878L23.1548 40.0161C23.1548 40.8614 24.1385 41.3254 24.7908 40.7878Z" fill="#949494"/>
<defs>
<filter id="filter0_b_1_3" x="-60" y="-60" width="179" height="179" filterUnits="userSpaceOnUse" color-interpolation-filters="sRGB">
<feFlood flood-opacity="0" result="BackgroundImageFix"/>
<feGaussianBlur in="BackgroundImageFix" stdDeviation="30"/>
<feComposite in2="SourceAlpha" operator="in" result="effect1_backgroundBlur_1_3"/>
<feBlend mode="normal" in="SourceGraphic" in2="effect1_backgroundBlur_1_3" result="shape"/>
</filter>
</defs>
</svg>
