<svg width="414" height="586" viewBox="0 0 414 586" fill="none" xmlns="http://www.w3.org/2000/svg">
<path d="M-613.559 127.331C-613.559 114.52 -613.558 104.996 -612.954 97.4257C-612.351 89.8723 -611.155 84.3818 -608.829 79.62C-604.666 71.0978 -598.001 64.0489 -589.725 59.4149C-585.101 56.8256 -579.686 55.3242 -572.178 54.2998C-564.653 53.273 -555.145 52.7388 -542.354 52.0215L332.027 2.99079C346.179 2.19722 356.705 1.60819 365.052 1.83614C373.383 2.06365 379.41 3.10476 384.589 5.49263C393.85 9.76283 401.455 16.9532 406.237 25.961C408.911 30.9981 410.288 36.9565 410.981 45.2622C411.676 53.5838 411.677 64.1257 411.677 78.2999V507.589C411.677 521.763 411.676 532.305 410.981 540.627C410.288 548.933 408.911 554.891 406.237 559.928C401.455 568.936 393.85 576.126 384.589 580.396C379.41 582.784 373.383 583.825 365.052 584.053C356.705 584.281 346.179 583.692 332.027 582.898L-542.354 533.867C-555.145 533.15 -564.653 532.616 -572.178 531.589C-579.686 530.565 -585.101 529.063 -589.725 526.474C-598.001 521.84 -604.666 514.791 -608.829 506.269C-611.155 501.507 -612.351 496.017 -612.954 488.463C-613.558 480.893 -613.559 471.369 -613.559 458.558V127.331Z" fill="url(#paint0_linear_205_986)" stroke="url(#paint1_radial_205_986)" stroke-width="2.88258"/>
<defs>
<linearGradient id="paint0_linear_205_986" x1="-50.7864" y1="243" x2="413.214" y2="243" gradientUnits="userSpaceOnUse">
<stop stop-color="#0B1120"/>
<stop offset="1" stop-color="#1A243C"/>
</linearGradient>
<radialGradient id="paint1_radial_205_986" cx="0" cy="0" r="1" gradientUnits="userSpaceOnUse" gradientTransform="translate(322.318 103.175) rotate(131.069) scale(644.256 1119.08)">
<stop stop-color="#37466B"/>
<stop offset="1" stop-color="#131B32"/>
</radialGradient>
</defs>
</svg>
