<svg width="197" height="28" viewBox="0 0 197 28" fill="none" xmlns="http://www.w3.org/2000/svg">
<path d="M0 2.50627C0 0.67135 1.91294 -0.540025 3.57676 0.24128L19.8827 7.8983C20.7619 8.31118 21.3231 9.19363 21.3231 10.1633V15.7475C21.3231 16.7172 20.7619 17.5996 19.8827 18.0125L3.57676 25.6695C1.91294 26.4508 0 25.2395 0 23.4045V2.50627Z" fill="#62BD7F"/>
<path d="M57.6978 2.50627C57.6978 0.67135 55.7849 -0.540025 54.1211 0.24128L37.8152 7.8983C36.9359 8.31118 36.3747 9.19363 36.3747 10.1633V15.7475C36.3747 16.7172 36.9359 17.5996 37.8152 18.0125L54.1211 25.6695C55.7849 26.4508 57.6978 25.2395 57.6978 23.4045V2.50627Z" fill="#62BD7F"/>
<path d="M23.8317 11.078C23.8317 9.69546 24.9549 8.57471 26.3403 8.57471H31.3575C32.743 8.57471 33.8661 9.69546 33.8661 11.078V14.8329C33.8661 16.2154 32.743 17.3361 31.3575 17.3361H26.3403C24.9549 17.3361 23.8317 16.2154 23.8317 14.8329V11.078Z" fill="#62BD7F"/>
<path d="M70.9915 21.091V5.54579H84.1322V21.091H81.1175V8.38135H74.0062V21.091H70.9915Z" fill="#62BD7F"/>
<path d="M91.7116 28L94.7263 19.81L94.7696 22.2281L87.9757 5.54579H91.1202L96.1976 18.4282H95.2744L100.121 5.54579H103.179L94.5821 28H91.7116Z" fill="#62BD7F"/>
<path d="M112.435 21.5228C110.925 21.5228 109.569 21.2014 108.367 20.5584C107.174 19.9155 106.232 19.0279 105.54 17.8956L107.934 16.3267C108.492 17.0752 109.136 17.6557 109.867 18.0683C110.607 18.4809 111.439 18.6873 112.362 18.6873C113.324 18.6873 114.084 18.4714 114.642 18.0395C115.209 17.5981 115.493 17.008 115.493 16.2691C115.493 15.6838 115.329 15.252 115.002 14.9737C114.685 14.6858 114.242 14.4987 113.675 14.4123C113.117 14.326 112.483 14.2828 111.771 14.2828H110.386V11.8646H111.771C112.713 11.8646 113.488 11.7351 114.093 11.476C114.709 11.2073 115.017 10.7035 115.017 9.96466C115.017 9.24498 114.752 8.7268 114.223 8.41014C113.704 8.09348 113.084 7.93515 112.362 7.93515C111.555 7.93515 110.771 8.10787 110.011 8.45332C109.252 8.78918 108.588 9.20659 108.021 9.70558L106.261 7.64727C107.088 6.85082 108.03 6.23189 109.088 5.79048C110.156 5.33948 111.3 5.11398 112.521 5.11398C113.521 5.11398 114.444 5.2915 115.291 5.64654C116.146 5.99199 116.829 6.50537 117.339 7.18667C117.858 7.86798 118.118 8.70761 118.118 9.70558C118.118 10.4828 117.945 11.1929 117.599 11.8358C117.252 12.4788 116.723 13.0641 116.012 13.5919L115.925 12.5699C116.512 12.7522 117.002 13.0449 117.397 13.4479C117.791 13.851 118.084 14.326 118.276 14.8729C118.478 15.4103 118.579 15.9812 118.579 16.5858C118.579 17.6317 118.301 18.5241 117.743 19.263C117.195 20.0019 116.454 20.5632 115.521 20.9471C114.589 21.3309 113.56 21.5228 112.435 21.5228Z" fill="#62BD7F"/>
<path d="M127.598 21.5228C126.444 21.5228 125.478 21.3117 124.699 20.8895C123.92 20.4577 123.329 19.8915 122.925 19.191C122.53 18.4809 122.333 17.7037 122.333 16.8593C122.333 16.0724 122.473 15.3815 122.752 14.7866C123.031 14.1916 123.444 13.6878 123.992 13.2752C124.54 12.853 125.213 12.5124 126.012 12.2533C126.704 12.0518 127.488 11.8742 128.363 11.7207C129.238 11.5672 130.156 11.4232 131.118 11.2889C132.089 11.1545 133.051 11.0202 134.003 10.8859L132.906 11.4904C132.926 10.2717 132.666 9.36972 132.128 8.78438C131.599 8.18944 130.685 7.89197 129.387 7.89197C128.57 7.89197 127.819 8.08388 127.137 8.46772C126.454 8.84195 125.978 9.46568 125.709 10.3389L122.896 9.47528C123.281 8.14146 124.011 7.08112 125.088 6.29426C126.175 5.50741 127.618 5.11398 129.416 5.11398C130.81 5.11398 132.022 5.35387 133.051 5.83366C134.089 6.30386 134.849 7.05233 135.33 8.07908C135.58 8.58766 135.734 9.12503 135.791 9.69118C135.849 10.2573 135.878 10.8667 135.878 11.5192V21.091H133.209V17.5358L133.729 17.9964C133.084 19.1862 132.262 20.0739 131.262 20.6592C130.272 21.2349 129.05 21.5228 127.598 21.5228ZM128.132 19.0615C128.988 19.0615 129.723 18.9128 130.339 18.6153C130.954 18.3082 131.45 17.9196 131.825 17.4494C132.2 16.9792 132.445 16.4898 132.56 15.9812C132.724 15.5206 132.815 15.0025 132.834 14.4267C132.863 13.851 132.878 13.3904 132.878 13.0449L133.859 13.4048C132.906 13.5487 132.041 13.6782 131.262 13.7934C130.483 13.9085 129.776 14.0237 129.142 14.1388C128.517 14.2444 127.959 14.3739 127.468 14.5275C127.055 14.6714 126.685 14.8441 126.358 15.0456C126.04 15.2472 125.786 15.4919 125.593 15.7797C125.411 16.0676 125.319 16.4178 125.319 16.8305C125.319 17.2335 125.42 17.6077 125.622 17.9532C125.824 18.289 126.132 18.5577 126.545 18.7592C126.959 18.9607 127.488 19.0615 128.132 19.0615Z" fill="#62BD7F"/>
<path d="M145.09 21.091V8.25181H139.768V5.54579H153.428V8.25181H148.105V21.091H145.09Z" fill="#62BD7F"/>
<path d="M155.818 21.091V17.91H159.006V21.091H155.818Z" fill="#62BD7F"/>
<path d="M172.309 21.5228C170.819 21.5228 169.568 21.163 168.559 20.4433C167.549 19.714 166.785 18.7304 166.265 17.4926C165.746 16.2547 165.486 14.8585 165.486 13.304C165.486 11.7495 165.741 10.3533 166.251 9.11543C166.77 7.87757 167.53 6.9036 168.53 6.19351C169.54 5.47382 170.78 5.11398 172.251 5.11398C173.713 5.11398 174.973 5.47382 176.031 6.19351C177.098 6.9036 177.92 7.87757 178.497 9.11543C179.074 10.3437 179.363 11.7399 179.363 13.304C179.363 14.8585 179.074 16.2595 178.497 17.507C177.93 18.7448 177.117 19.7236 176.06 20.4433C175.011 21.163 173.761 21.5228 172.309 21.5228ZM164.982 28V5.54579H167.664V16.7297H168.011V28H164.982ZM171.891 18.8024C172.852 18.8024 173.646 18.5577 174.271 18.0683C174.906 17.5789 175.377 16.9216 175.684 16.0964C176.002 15.2616 176.16 14.3308 176.16 13.304C176.16 12.2868 176.002 11.3657 175.684 10.5404C175.377 9.71517 174.901 9.05786 174.256 8.56847C173.612 8.07908 172.79 7.83439 171.79 7.83439C170.847 7.83439 170.069 8.06469 169.453 8.52529C168.847 8.98589 168.395 9.62881 168.097 10.4541C167.809 11.2793 167.664 12.2293 167.664 13.304C167.664 14.3787 167.809 15.3287 168.097 16.154C168.386 16.9792 168.842 17.6269 169.468 18.0971C170.093 18.5673 170.9 18.8024 171.891 18.8024Z" fill="#62BD7F"/>
<path d="M185.533 28L188.547 19.81L188.591 22.2281L181.797 5.54579H184.941L190.019 18.4282H189.095L193.942 5.54579H197L188.403 28H185.533Z" fill="#62BD7F"/>
</svg>
