<svg width="414" height="586" viewBox="0 0 414 586" fill="none" xmlns="http://www.w3.org/2000/svg">
<path d="M1026.77 127.331C1026.77 114.52 1026.77 104.996 1026.17 97.4257C1025.56 89.8724 1024.37 84.3819 1022.04 79.6201C1017.88 71.0979 1011.21 64.049 1002.94 59.415C998.315 56.8257 992.9 55.3243 985.392 54.2998C977.867 53.2731 968.358 52.7388 955.568 52.0216L81.1865 2.99085C67.0345 2.19728 56.5091 1.60825 48.1616 1.8362C39.8301 2.06371 33.804 3.10482 28.6251 5.49269C19.3637 9.7629 11.7589 16.9533 6.97681 25.9611C4.30273 30.9981 2.9259 36.9565 2.2323 45.2622C1.53735 53.5839 1.53613 64.1257 1.53613 78.3V507.589C1.53613 521.763 1.53735 532.305 2.2323 540.627C2.9259 548.933 4.30273 554.891 6.97681 559.928C11.7589 568.936 19.3637 576.126 28.6251 580.396C33.804 582.784 39.8301 583.825 48.1616 584.053C56.5091 584.281 67.0345 583.692 81.1865 582.898L955.568 533.868C968.358 533.15 977.867 532.616 985.392 531.589C992.9 530.565 998.315 529.063 1002.94 526.474C1011.21 521.84 1017.88 514.791 1022.04 506.269C1024.37 501.507 1025.56 496.017 1026.17 488.463C1026.77 480.893 1026.77 471.369 1026.77 458.558V127.331Z" fill="url(#paint0_linear_205_987)" stroke="url(#paint1_radial_205_987)" stroke-width="2.88258"/>
<defs>
<linearGradient id="paint0_linear_205_987" x1="464" y1="243" x2="-6.51728e-06" y2="243" gradientUnits="userSpaceOnUse">
<stop stop-color="#0B1120"/>
<stop offset="1" stop-color="#1A243C"/>
</linearGradient>
<radialGradient id="paint1_radial_205_987" cx="0" cy="0" r="1" gradientUnits="userSpaceOnUse" gradientTransform="translate(90.8959 103.175) rotate(48.9306) scale(644.256 1119.08)">
<stop stop-color="#37466B"/>
<stop offset="1" stop-color="#131B32"/>
</radialGradient>
</defs>
</svg>
