<svg width="70" height="17" viewBox="0 0 70 17" fill="none" xmlns="http://www.w3.org/2000/svg">
<path d="M40.3312 16.529C41.6363 16.529 42.7058 15.9154 43.4671 14.7783L43.6121 16.2944H46.1861V0.123047H43.4127V5.97072C42.7239 4.92391 41.6726 4.36441 40.4581 4.36441C37.7754 4.36441 35.8902 6.62046 35.8902 10.537C35.8902 14.3813 37.721 16.529 40.3312 16.529ZM57.4426 15.5183V13.2623C56.5726 13.8398 55.1224 14.3632 53.7629 14.3632C51.7328 14.3632 50.9533 13.4066 50.8446 11.4574H57.5514V9.97745C57.5514 5.89852 55.7569 4.36441 52.9654 4.36441C49.5757 4.36441 47.9625 6.94533 47.9625 10.4828C47.9625 14.5617 49.9745 16.529 53.5273 16.529C55.3037 16.529 56.6088 16.0778 57.4426 15.5183ZM27.4795 7.90189C28.0052 7.2702 28.8027 6.74679 29.8178 6.74679C30.7966 6.74679 31.2317 7.16191 31.2317 8.04628V16.3124H34.005V7.7575C34.005 5.42926 33.0806 4.40051 30.7966 4.40051C29.1471 4.40051 28.1502 5.01415 27.5883 5.5556H27.4432L27.3707 4.58099H24.6518V16.2944H27.4251L27.4795 7.90189ZM22.4222 8.317C22.4222 5.48341 20.9721 4.40051 18.0174 4.40051C16.1867 4.40051 14.7184 5.17659 13.8846 5.77218V8.17262C14.7728 7.45068 16.1323 6.62046 17.6912 6.62046C19.0144 6.62046 19.6307 7.08971 19.6307 8.3531V9.09308H19.1957C14.9359 9.09308 13.0508 10.4648 13.0508 12.9193C13.0508 15.1754 14.5009 16.4749 16.658 16.4749C18.2893 16.4749 18.9963 15.9334 19.5401 15.3739H19.6488C19.667 15.6807 19.7576 16.0597 19.8482 16.2944H22.5672C22.4766 15.3378 22.4222 14.3812 22.4222 13.4247V8.317ZM65.9802 16.3124H69.1161L65.2733 10.2843L68.5904 4.61709H65.8171L63.805 8.15457L61.5573 4.61709H58.4033L61.9561 10.2301L58.2583 16.3305H61.0861L63.4425 12.3779L65.9802 16.3124ZM41.165 6.54826C42.6695 6.54826 43.4127 7.73945 43.4127 10.4287C43.4127 13.154 42.6151 14.3452 41.0563 14.3452C39.5336 14.3452 38.7904 13.1901 38.7904 10.5189C38.7723 7.7575 39.5699 6.54826 41.165 6.54826ZM52.9291 6.54826C54.3067 6.54826 54.7237 7.68531 54.7237 9.14723V9.38185H50.8446C50.899 7.52287 51.5878 6.54826 52.9291 6.54826ZM19.6488 13.5149C19.3044 14.0383 18.6337 14.4354 17.6549 14.4354C16.4948 14.4354 15.8966 13.7676 15.8966 12.7389C15.8966 11.3852 16.8574 10.916 19.2319 10.916H19.6307V13.5149H19.6488Z" fill="#141414"/>
<path d="M9.16408 13.7459V16.529H6.32269V11.8416L0.967773 0.123047H3.93666L8.10767 9.27816C8.90908 11.0359 9.16408 11.6402 9.16408 13.7459ZM14.5008 0.123047L11.0219 8.05137H8.12588L11.623 0.123047H14.5008Z" fill="#FC3F1D"/>
</svg>
