<svg width="145" height="36" viewBox="0 0 145 36" fill="none" xmlns="http://www.w3.org/2000/svg">
<path d="M83.8368 35.4032C86.5851 35.4032 88.8372 34.1109 90.4403 31.7165L90.7457 34.9091H96.166V0.855469H90.3258V13.1695C88.8753 10.9651 86.6614 9.78694 84.104 9.78694C78.4547 9.78694 74.4849 14.5377 74.4849 22.7851C74.4849 30.8804 78.3402 35.4032 83.8368 35.4032ZM119.87 33.2748V28.524C118.038 29.7402 114.984 30.8424 112.121 30.8424C107.846 30.8424 106.205 28.8281 105.976 24.7234H120.099V21.6069C120.099 13.0175 116.32 9.78694 110.442 9.78694C103.304 9.78694 99.9067 15.2218 99.9067 22.6711C99.9067 31.2605 104.144 35.4032 111.625 35.4032C115.366 35.4032 118.114 34.453 119.87 33.2748ZM56.7736 17.2362C57.8806 15.9059 59.5601 14.8038 61.6977 14.8038C63.7589 14.8038 64.675 15.6779 64.675 17.5402V34.9471H70.5152V16.9321C70.5152 12.0293 68.5684 9.86295 63.7589 9.86295C60.2854 9.86295 58.186 11.1552 57.0027 12.2954H56.6973L56.5446 10.243H50.819V34.9091H56.6591L56.7736 17.2362ZM46.124 18.1103C46.124 12.1433 43.0703 9.86295 36.8485 9.86295C32.9932 9.86295 29.9014 11.4972 28.1455 12.7514V17.8063C30.0159 16.286 32.8787 14.5377 36.1614 14.5377C38.9479 14.5377 40.2457 15.5259 40.2457 18.1863V19.7446H39.3296C30.3594 19.7446 26.3896 22.6331 26.3896 27.8019C26.3896 32.5527 29.4433 35.2891 33.9856 35.2891C37.421 35.2891 38.9097 34.149 40.0548 32.9708H40.2838C40.322 33.6169 40.5129 34.415 40.7037 34.9091H46.4293C46.2385 32.8947 46.124 30.8804 46.124 28.8661V18.1103ZM137.849 34.9471H144.452L136.36 22.253L143.345 10.319H137.505L133.268 17.7683L128.535 10.319H121.893L129.375 22.139L121.588 34.9851H127.542L132.505 26.6617L137.849 34.9471ZM85.5926 14.3857C88.7608 14.3857 90.3258 16.8941 90.3258 22.557C90.3258 28.296 88.6463 30.8044 85.3636 30.8044C82.1573 30.8044 80.5923 28.372 80.5923 22.7471C80.5541 16.9321 82.2336 14.3857 85.5926 14.3857ZM110.366 14.3857C113.267 14.3857 114.144 16.7801 114.144 19.8586V20.3527H105.976C106.09 16.438 107.541 14.3857 110.366 14.3857ZM40.2838 29.0561C39.5586 30.1583 38.1463 30.9944 36.085 30.9944C33.6421 30.9944 32.3825 29.5882 32.3825 27.4218C32.3825 24.5714 34.4055 23.5832 39.4059 23.5832H40.2457V29.0561H40.2838Z" fill="#141414"/>
<path d="M18.2051 29.5424V35.4032H12.2217V25.5324L0.945312 0.855469H7.19719L15.9805 20.1343C17.6681 23.8358 18.2051 25.1083 18.2051 29.5424ZM29.4431 0.855469L22.1173 17.5509H16.0189L23.383 0.855469H29.4431Z" fill="#FC3F1D"/>
</svg>
