<svg width="57" height="57" viewBox="0 0 57 57" fill="none" xmlns="http://www.w3.org/2000/svg">
<rect y="0.126038" width="56.3544" height="56.3544" rx="10.4845" fill="#267942"/>
<g filter="url(#filter0_i_205_1015)">
<rect x="2.62111" y="2.74744" width="51.1121" height="51.1121" rx="7.86341" fill="#62BD80"/>
</g>
<path d="M39.0227 23.5855C38.9768 23.4708 38.9287 23.3561 38.8794 23.2415C38.1395 21.5352 36.9421 20.0667 35.4197 18.9985H37.876C38.1193 18.9985 38.3526 18.9019 38.5247 18.7298C38.6967 18.5578 38.7934 18.3245 38.7934 18.0811C38.7934 17.8378 38.6967 17.6045 38.5247 17.4325C38.3526 17.2604 38.1193 17.1638 37.876 17.1638H25.9499C23.4134 17.167 20.9709 18.124 19.1074 19.8447C17.2439 21.5655 16.0956 23.9242 15.8907 26.4523C15.0983 26.6493 14.3942 27.105 13.8899 27.7472C13.3856 28.3894 13.1099 29.1815 13.1064 29.9981C13.1064 30.2414 13.2031 30.4747 13.3751 30.6467C13.5472 30.8188 13.7805 30.9154 14.0238 30.9154C14.2671 30.9154 14.5005 30.8188 14.6725 30.6467C14.8446 30.4747 14.9412 30.2414 14.9412 29.9981C14.9414 29.6635 15.0331 29.3354 15.2063 29.0492C15.3795 28.763 15.6277 28.5296 15.924 28.3743C16.1523 30.4325 17.0105 32.37 18.3814 33.9222L19.8217 37.9541C19.9491 38.3108 20.1836 38.6192 20.4932 38.8373C20.8028 39.0553 21.1723 39.1722 21.551 39.172H23.0097C23.3881 39.172 23.7574 39.055 24.0668 38.837C24.3761 38.6189 24.6105 38.3106 24.7378 37.9541L24.958 37.3372H31.5288L31.7489 37.9541C31.8762 38.3106 32.1106 38.6189 32.42 38.837C32.7294 39.055 33.0986 39.172 33.4771 39.172H34.9357C35.3142 39.172 35.6835 39.055 35.9928 38.837C36.3022 38.6189 36.5366 38.3106 36.6639 37.9541L38.5227 32.7502H38.7934C39.5233 32.7502 40.2233 32.4603 40.7394 31.9441C41.2556 31.428 41.5455 30.728 41.5455 29.9981V26.3285C41.5456 25.6382 41.2863 24.9731 40.819 24.465C40.3517 23.9569 39.7106 23.643 39.0227 23.5855ZM30.5368 21.7415H25.9499C25.7066 21.7415 25.4732 21.6449 25.3012 21.4728C25.1292 21.3008 25.0325 21.0675 25.0325 20.8241C25.0325 20.5808 25.1292 20.3475 25.3012 20.1755C25.4732 20.0034 25.7066 19.9068 25.9499 19.9068H30.5368C30.7802 19.9068 31.0135 20.0034 31.1855 20.1755C31.3576 20.3475 31.4542 20.5808 31.4542 20.8241C31.4542 21.0675 31.3576 21.3008 31.1855 21.4728C31.0135 21.6449 30.7802 21.7415 30.5368 21.7415ZM33.7477 28.1633C33.4755 28.1633 33.2095 28.0826 32.9832 27.9314C32.7569 27.7802 32.5805 27.5652 32.4764 27.3138C32.3722 27.0623 32.345 26.7857 32.3981 26.5187C32.4512 26.2518 32.5822 26.0066 32.7747 25.8141C32.9671 25.6217 33.2123 25.4906 33.4793 25.4375C33.7462 25.3844 34.0229 25.4117 34.2743 25.5158C34.5258 25.62 34.7407 25.7964 34.8919 26.0227C35.0431 26.249 35.1238 26.515 35.1238 26.7872C35.1238 27.1521 34.9788 27.5022 34.7208 27.7602C34.4627 28.0183 34.1127 28.1633 33.7477 28.1633Z" fill="white"/>
<defs>
<filter id="filter0_i_205_1015" x="2.62111" y="2.74744" width="51.1121" height="51.1121" filterUnits="userSpaceOnUse" color-interpolation-filters="sRGB">
<feFlood flood-opacity="0" result="BackgroundImageFix"/>
<feBlend mode="normal" in="SourceGraphic" in2="BackgroundImageFix" result="shape"/>
<feColorMatrix in="SourceAlpha" type="matrix" values="0 0 0 0 0 0 0 0 0 0 0 0 0 0 0 0 0 0 127 0" result="hardAlpha"/>
<feOffset/>
<feGaussianBlur stdDeviation="6.55284"/>
<feComposite in2="hardAlpha" operator="arithmetic" k2="-1" k3="1"/>
<feColorMatrix type="matrix" values="0 0 0 0 0.384314 0 0 0 0 0.741176 0 0 0 0 0.501961 0 0 0 0.5 0"/>
<feBlend mode="normal" in2="shape" result="effect1_innerShadow_205_1015"/>
</filter>
</defs>
</svg>
