<svg width="57" height="57" viewBox="0 0 57 57" fill="none" xmlns="http://www.w3.org/2000/svg">
<rect y="0.556091" width="56.3544" height="56.3544" rx="10.4845" fill="#267942"/>
<g filter="url(#filter0_i_205_1022)">
<rect x="2.62111" y="3.17737" width="51.1121" height="51.1121" rx="7.86341" fill="#62BD80"/>
</g>
<path d="M41.3817 27.3905L29.5199 15.5287C29.3435 15.3523 29.1342 15.2124 28.9038 15.117C28.6734 15.0215 28.4264 14.9724 28.177 14.9724C27.9277 14.9724 27.6807 15.0215 27.4503 15.117C27.2199 15.2124 27.0105 15.3523 26.8342 15.5287L14.9723 27.3905C14.796 27.5669 14.6561 27.7762 14.5607 28.0066C14.4652 28.237 14.4161 28.484 14.4161 28.7333C14.4161 28.9827 14.4652 29.2297 14.5607 29.4601C14.6561 29.6905 14.796 29.8998 14.9723 30.0762L26.8342 41.938C27.0105 42.1144 27.2199 42.2543 27.4503 42.3497C27.6807 42.4452 27.9277 42.4943 28.177 42.4943C28.4264 42.4943 28.6734 42.4452 28.9038 42.3497C29.1342 42.2543 29.3435 42.1144 29.5199 41.938L41.3817 30.0762C41.5581 29.8998 41.698 29.6905 41.7934 29.4601C41.8888 29.2297 41.938 28.9827 41.938 28.7333C41.938 28.484 41.8888 28.237 41.7934 28.0066C41.698 27.7762 41.5581 27.5669 41.3817 27.3905ZM33.413 28.465L30.6609 31.2172C30.4887 31.3893 30.2553 31.486 30.0118 31.486C29.7684 31.486 29.5349 31.3893 29.3628 31.2172C29.1906 31.045 29.0939 30.8116 29.0939 30.5681C29.0939 30.3247 29.1906 30.0912 29.3628 29.9191L30.5496 28.7333H26.3423C25.8556 28.7333 25.389 28.9267 25.0449 29.2707C24.7008 29.6148 24.5075 30.0815 24.5075 30.5681V31.4855C24.5075 31.7288 24.4108 31.9622 24.2388 32.1342C24.0667 32.3063 23.8334 32.4029 23.5901 32.4029C23.3468 32.4029 23.1134 32.3063 22.9414 32.1342C22.7693 31.9622 22.6727 31.7288 22.6727 31.4855V30.5681C22.6727 29.5949 23.0593 28.6615 23.7475 27.9734C24.4357 27.2852 25.369 26.8986 26.3423 26.8986H30.5496L29.3628 25.7128C29.1906 25.5407 29.0939 25.3072 29.0939 25.0638C29.0939 24.8203 29.1906 24.5869 29.3628 24.4147C29.5349 24.2426 29.7684 24.1459 30.0118 24.1459C30.2553 24.1459 30.4887 24.2426 30.6609 24.4147L33.413 27.1669C33.4983 27.2521 33.566 27.3533 33.6122 27.4646C33.6583 27.576 33.6821 27.6954 33.6821 27.816C33.6821 27.9365 33.6583 28.0559 33.6122 28.1673C33.566 28.2786 33.4983 28.3798 33.413 28.465Z" fill="white"/>
<defs>
<filter id="filter0_i_205_1022" x="2.62111" y="3.17737" width="51.1121" height="51.1121" filterUnits="userSpaceOnUse" color-interpolation-filters="sRGB">
<feFlood flood-opacity="0" result="BackgroundImageFix"/>
<feBlend mode="normal" in="SourceGraphic" in2="BackgroundImageFix" result="shape"/>
<feColorMatrix in="SourceAlpha" type="matrix" values="0 0 0 0 0 0 0 0 0 0 0 0 0 0 0 0 0 0 127 0" result="hardAlpha"/>
<feOffset/>
<feGaussianBlur stdDeviation="6.55284"/>
<feComposite in2="hardAlpha" operator="arithmetic" k2="-1" k3="1"/>
<feColorMatrix type="matrix" values="0 0 0 0 0.384314 0 0 0 0 0.741176 0 0 0 0 0.501961 0 0 0 0.5 0"/>
<feBlend mode="normal" in2="shape" result="effect1_innerShadow_205_1022"/>
</filter>
</defs>
</svg>
