<svg width="50" height="50" viewBox="0 0 50 50" fill="none" xmlns="http://www.w3.org/2000/svg">
<rect x="0.5" y="0.5" width="49" height="49" rx="8.19565" stroke="#4E5F80"/>
<path d="M24.8205 28.631H25.1697C27.7752 28.631 29.8838 26.5115 29.8838 23.906V15.7385C29.8838 13.1195 27.7752 11 25.1697 11H24.8205C22.215 11 20.1065 13.1195 20.1065 15.7385V23.906C20.1065 26.5115 22.215 28.631 24.8205 28.631Z" fill="#4E5F80"/>
<path d="M34.4905 24.5945C34.5442 24.0275 34.1279 23.5415 33.5772 23.4875C33.0131 23.447 32.5296 23.852 32.4894 24.4055C32.1402 28.2665 28.8497 31.2905 24.9952 31.2905C21.1406 31.2905 17.8502 28.2665 17.501 24.4055C17.4607 23.852 16.9637 23.447 16.4131 23.4875C15.8624 23.5415 15.4461 24.0275 15.4998 24.5945C15.9027 29.144 19.5424 32.7755 23.9879 33.2615V35.975H21.8927C21.3286 35.975 20.8854 36.434 20.8854 36.9875C20.8854 37.541 21.3286 38 21.8927 38H28.0976C28.6617 38 29.1049 37.541 29.1049 36.9875C29.1049 36.434 28.6617 35.975 28.0976 35.975H26.0024V33.2615C30.4479 32.7755 34.0876 29.144 34.4905 24.5945Z" fill="#4E5F80"/>
</svg>
